PathFileType	4	(X/Y/Z)	D:\TRACE\v60_Jaco2_6-2-23\BothDRS_Motion1_7-platform.trc
DataRate	CameraRate	NumFrames	NumMarkers	Units	OrigDataRate	OrigDataStartFrame	OrigNumFrames
100.00	100.00	      61	5	mm	100.00	1876	      7500
Frame#	Time	Left_Front			Right_Front			Left_Aft			Right_Aft			Post			
		X1	Y1	Z1	X2	Y2	Z2	X3	Y3	Z3	X4	Y4	Z4	X5	Y5	Z5	

1876	18.750	-764.36029	0.09595	-641.25623	805.54962	1.67914	-646.40997	-672.41760	13.31477	493.89813	769.88068	13.23152	503.48782	21.39748	1295.28613	-983.75830	
1877	18.760	-765.00116	0.41145	-641.10669	804.91528	1.83579	-646.32031	-673.10834	13.06185	493.95389	769.22333	12.96192	503.68091	21.26676	1295.72559	-982.68457	
1878	18.770	-765.44232	0.72171	-641.27740	804.22333	2.23825	-646.21210	-673.76001	12.74693	494.08997	768.50623	12.71234	503.72034	20.81458	1296.05566	-981.45087	
1879	18.780	-766.38361	1.09276	-640.97540	803.76544	2.55547	-646.13599	-674.24683	12.60107	494.13123	768.06830	12.69731	503.75665	19.65726	1296.75293	-980.29120	
1880	18.790	-767.03906	1.57720	-640.81543	802.89807	2.85790	-646.08197	-674.97772	12.42025	494.22018	767.42395	12.48711	503.82364	18.95319	1297.32813	-978.75818	
1881	18.800	-767.55884	1.86383	-640.83038	802.18756	3.24216	-645.98004	-675.83417	12.19160	494.33691	766.36194	12.10614	503.90579	18.31870	1297.71326	-977.43793	
1882	18.810	-768.27942	2.06546	-640.68341	801.43701	3.43812	-645.96582	-676.56598	11.90687	494.44974	765.53802	11.72016	503.93362	17.53074	1298.02319	-975.45026	
1883	18.820	-769.00385	2.47400	-640.59827	800.67596	3.76136	-645.91168	-677.25104	11.71242	494.57288	765.08813	11.46365	503.96988	16.74626	1298.82983	-974.34052	
1884	18.830	-769.89758	3.13651	-640.70532	800.04248	4.23563	-645.81525	-677.81781	11.51408	494.64090	764.34393	11.31705	504.15720	16.04318	1299.66895	-973.26447	
1885	18.840	-770.48022	3.60894	-640.49048	799.36249	4.67098	-645.64709	-678.64032	11.25963	494.78394	763.49371	11.09341	504.22250	15.62421	1300.05750	-972.54565	
1886	18.850	-771.16479	3.96343	-640.36975	798.46918	5.09307	-645.71515	-679.10126	10.74926	494.98019	762.85480	10.61468	504.27213	14.68285	1300.39136	-972.28058	
1887	18.860	-772.02472	4.26778	-640.27386	797.66931	5.45014	-645.63879	-679.97742	10.51256	494.98669	762.11646	10.30946	504.54672	13.99621	1301.04932	-972.14038	
1888	18.870	-773.07227	4.49608	-640.10785	796.85565	5.69649	-645.44012	-680.95990	10.13504	495.11127	761.11298	9.95829	504.61404	13.38579	1301.54407	-971.93262	
1889	18.880	-773.52014	4.79553	-640.08325	796.12250	6.08070	-645.51801	-681.59955	9.92607	495.25394	760.71222	9.84705	504.71832	12.59000	1302.40027	-971.44397	
1890	18.890	-774.28876	5.18839	-639.93811	795.33099	6.40998	-645.39893	-682.33795	9.84849	495.23489	760.19183	9.70570	504.81891	11.93983	1302.79224	-971.21838	
1891	18.900	-775.00610	5.49311	-639.76788	794.55219	6.71999	-645.10358	-683.23047	9.64513	495.28177	759.26428	9.47383	504.90427	10.61935	1303.47546	-970.36646	
1892	18.910	-776.21649	6.02788	-639.61096	793.77441	7.37621	-645.14075	-684.09314	9.48167	495.26944	758.00751	9.06587	505.05103	10.28569	1303.86890	-969.76514	
1893	18.920	-776.85809	6.30338	-639.63544	793.18268	7.63329	-645.17700	-684.69110	9.12479	495.32770	757.49139	8.80167	505.09897	9.13709	1304.29956	-968.42633	
1894	18.930	-777.35724	6.52257	-639.53583	792.29510	7.84532	-645.03076	-685.70203	8.79948	495.49213	756.57239	8.55667	505.31384	8.50966	1304.91980	-967.10425	
1895	18.940	-778.30701	6.97839	-639.51746	791.22070	8.33089	-644.77539	-686.52405	8.67295	495.78458	755.64392	8.26215	505.48138	7.80528	1305.49255	-966.33008	
1896	18.950	-779.33545	7.43650	-639.45813	790.68774	8.85688	-644.66742	-687.31427	8.40388	495.97678	755.18903	8.02838	505.44235	7.25271	1306.07764	-964.75043	
1897	18.960	-780.22070	8.09410	-639.46655	789.99335	9.28581	-644.62238	-688.17438	8.09336	495.93536	754.18494	7.67916	505.44995	5.77140	1306.60828	-963.64948	
1898	18.970	-780.62695	8.29644	-639.16138	788.85321	9.63232	-644.33521	-689.02551	7.96655	496.03857	753.21240	7.42738	505.75473	4.97515	1307.13550	-962.84460	
1899	18.980	-781.63849	8.69596	-639.03986	788.14600	10.00202	-644.30731	-689.92310	7.58435	496.05368	752.36902	7.04320	505.28000	4.23799	1307.82483	-961.79602	
1900	18.990	-782.76978	9.09513	-638.95575	787.14026	10.65422	-644.25623	-690.77844	7.34001	496.23318	751.68378	6.93137	505.87750	3.43641	1308.43445	-960.98773	
1901	19.000	-783.51288	9.52719	-639.03638	786.39337	11.01700	-644.04327	-691.85498	7.25112	496.45303	750.06335	6.05819	506.10840	2.59570	1309.19617	-960.45227	
1902	19.010	-784.14673	9.61259	-638.58789	785.60870	11.30732	-644.02661	-692.50867	6.84814	496.36319	750.02008	6.37093	506.10971	1.87526	1309.61780	-959.83191	
1903	19.020	-785.32233	10.04661	-638.42554	784.52856	11.73284	-643.97656	-693.34210	6.54876	496.41916	748.89996	5.85354	506.13763	0.80749	1310.13843	-959.29211	
1904	19.030	-786.42004	10.44404	-638.29346	783.69861	12.00971	-643.75385	-694.39313	6.27477	496.46902	747.92230	5.51599	506.20679	0.12271	1310.45520	-958.55792	
1905	19.040	-787.12726	10.94614	-638.62885	782.76306	12.34652	-643.65381	-695.09479	6.02005	496.69760	747.11029	5.39690	506.35486	-0.66385	1311.22607	-957.67413	
1906	19.050	-787.99493	11.41664	-638.49408	781.82831	12.78081	-643.77716	-696.08160	5.57712	496.86063	746.18890	5.07775	506.32590	-1.77191	1311.98950	-956.78857	
1907	19.060	-788.92847	12.01171	-638.20660	780.79108	13.29263	-643.51764	-697.11859	5.47372	497.01822	745.32031	4.82310	506.48785	-2.81104	1312.60156	-955.99359	
1908	19.070	-789.87952	12.35397	-638.12378	779.92267	13.69630	-643.42450	-697.90314	5.21874	497.08585	744.37201	4.38992	506.54297	-3.56171	1312.99011	-955.04028	
1909	19.080	-790.73474	12.80230	-638.24921	779.27039	13.86785	-643.29065	-698.76349	4.82250	497.11646	743.16656	3.97205	506.53094	-4.75725	1313.64441	-953.78815	
1910	19.090	-791.68658	13.14564	-638.08044	778.05115	14.25775	-643.26245	-699.83777	4.56315	497.10300	742.65826	3.74016	506.56897	-5.34126	1314.33960	-953.01923	
1911	19.100	-792.44336	13.43291	-637.71228	777.20807	14.71315	-643.06891	-700.53485	4.36369	497.23355	741.66229	3.42374	506.82477	-6.09890	1314.75793	-951.77686	
1912	19.110	-793.51776	14.05771	-637.75922	776.68500	15.30106	-642.81433	-701.60925	4.00044	497.24078	740.72028	3.33071	507.06265	-7.59063	1315.55005	-950.56335	
1913	19.120	-794.62750	14.23993	-637.68799	775.41956	15.79327	-642.61591	-702.54248	3.80275	497.51340	739.80542	3.00042	507.08377	-8.33776	1316.09094	-949.92883	
1914	19.130	-795.73700	14.59517	-637.40240	774.67102	16.20950	-642.61572	-703.57037	3.34045	497.65872	738.58044	2.63234	507.25125	-9.22809	1316.71924	-948.92578	
1915	19.140	-796.50305	14.93028	-637.12305	773.67767	16.52981	-642.52893	-704.44843	3.07659	497.74182	737.76917	2.35472	507.38382	-10.31686	1317.40222	-947.79639	
1916	19.150	-797.32526	15.58978	-637.24274	772.67963	16.90496	-642.35431	-705.30945	2.67842	497.77130	736.90411	2.02551	507.39902	-10.98488	1318.06750	-946.96661	
1917	19.160	-798.53033	16.14932	-637.30255	771.62201	17.39066	-642.36053	-706.34698	2.50519	498.05515	735.49518	1.82563	507.70947	-11.91827	1318.49561	-946.16699	
1918	19.170	-799.39581	16.59616	-637.16687	770.83203	17.80607	-642.24219	-707.32733	2.43762	498.07187	735.23096	1.59627	507.74124	-13.13829	1319.12488	-945.76276	
1919	19.180	-800.17676	16.88635	-636.88068	769.90045	18.17189	-642.11407	-708.14282	1.90032	498.15317	734.17340	1.15623	507.78641	-14.01336	1319.73047	-944.69696	
1920	19.190	-801.08551	17.34524	-636.98145	768.66010	18.46410	-642.12610	-709.05896	1.58324	498.22745	733.00031	0.71377	507.79761	-14.90598	1320.38318	-943.95282	
1921	19.200	-802.35046	17.71536	-637.02472	767.81433	18.86353	-641.90405	-710.21765	1.29238	498.21927	732.18250	0.54753	508.01718	-15.75636	1320.92041	-942.76227	
1922	19.210	-802.97852	18.17133	-636.73773	766.91620	19.33130	-641.76099	-711.03735	1.15278	498.46600	731.19037	0.19576	508.01886	-16.95301	1321.52454	-941.68579	
1923	19.220	-803.98529	18.45501	-636.34686	765.91229	19.66345	-641.77618	-712.15057	0.90501	498.59012	730.04059	-0.22426	507.62082	-17.90565	1322.10010	-941.04517	
1924	19.230	-805.25177	18.89332	-636.20245	764.88855	20.21307	-641.48846	-712.97461	0.47623	498.79337	729.21021	-0.41517	508.26477	-19.06729	1322.83154	-940.08209	
1925	19.240	-806.29309	19.19763	-636.25684	763.98608	20.61823	-641.29584	-713.95715	0.20333	498.83890	728.10883	-0.81349	508.30576	-19.44806	1323.36157	-938.80896	
1926	19.250	-806.84595	19.79501	-636.27203	763.20190	21.07912	-641.37811	-715.18958	-0.06382	498.83768	727.39716	-0.94845	508.13297	-20.44933	1324.00134	-937.98779	
1927	19.260	-807.89441	20.22263	-636.00928	761.96478	21.56391	-641.22314	-715.90222	-0.33188	499.01413	726.05286	-1.47494	508.63840	-21.31461	1324.50476	-936.81732	
1928	19.270	-808.92780	20.85752	-635.98010	761.23590	21.86482	-640.91998	-716.95044	-0.64093	498.99609	725.41724	-1.62602	508.56573	-22.32510	1324.93665	-935.79297	
1929	19.280	-809.87756	21.15551	-635.96216	760.20612	22.31976	-640.93341	-717.93005	-0.71112	499.20071	724.44684	-1.78417	508.69180	-23.45920	1325.90942	-935.06842	
1930	19.290	-810.80957	21.61774	-635.80664	759.32306	22.83997	-640.69543	-718.72021	-1.23301	499.30322	723.16376	-2.20442	508.82162	-24.48974	1326.57458	-934.03363	
1931	19.300	-811.89905	21.94452	-635.42676	758.36530	23.20457	-640.52167	-719.78528	-1.41688	499.35834	722.25995	-2.63886	508.84808	-24.93690	1327.15979	-933.23895	
1932	19.310	-812.71527	22.40066	-635.56488	757.48413	23.43594	-640.46625	-720.86035	-1.70965	499.47635	721.00757	-2.85082	508.98099	-26.29324	1327.50977	-932.36719	
1933	19.320	-813.55688	22.97062	-635.28015	756.29449	23.92519	-640.34180	-721.65100	-2.11763	499.63800	720.44531	-3.11149	509.08090	-27.19242	1327.98108	-931.31891	
1934	19.330	-814.84503	23.35996	-634.99634	755.38379	24.47053	-640.30408	-722.60358	-2.21458	499.76620	719.82172	-3.28091	509.25638	-27.94731	1328.73389	-930.65454	
1935	19.340	-815.74347	23.54791	-634.87933	754.66205	24.56074	-640.04541	-723.69385	-2.41462	499.74161	718.22589	-3.81679	509.36304	-29.06460	1329.35791	-929.42346	
1936	19.350	-816.46552	23.74843	-634.97650	753.52258	24.66201	-639.99548	-724.53052	-2.79205	499.71344	717.60339	-4.18066	509.52078	-29.84245	1329.92773	-928.63757	
